<?xml version="1.0" encoding="iso-8859-1"?>
<!-- Uploaded to: SVG Repo, www.svgrepo.com, Generator: SVG Repo Mixer Tools -->
<svg version="1.1" id="Layer_1" xmlns="http://www.w3.org/2000/svg" xmlns:xlink="http://www.w3.org/1999/xlink" 
	 viewBox="0 0 480 480" xml:space="preserve">
<polygon style="fill:#BD8931;" points="440,72 40,72 8,160.944 8,240 472,240 472,160.944 "/>
<polygon style="fill:#F5EEE2;" points="328,160 152,160 152,136 168,112 312,112 328,136 "/>
<path d="M328,168H152c-4.416,0-8-3.576-8-8v-24c0-1.576,0.472-3.128,1.344-4.44l16-24c1.488-2.224,3.984-3.56,6.656-3.56h144
	c2.672,0,5.168,1.336,6.656,3.56l16,24c0.872,1.312,1.344,2.864,1.344,4.44v24C336,164.424,332.424,168,328,168z M160,152h160
	v-13.576L307.72,120H172.28L160,138.424V152z"/>
<polygon style="fill:#CCA96D;" points="472,440 464,456 440,456 440,432 328,432 328,448 320,456 304,456 296,448 296,432 184,432 
	184,448 176,456 160,456 152,448 152,432 40,432 40,456 16,456 8,440 8,240 472,240 "/>
<path d="M479.528,158.224l-32-88.936C446.384,66.12,443.376,64,440,64H40c-3.376,0-6.384,2.12-7.528,5.288l-32,88.936
	C0.16,159.104,0,160.016,0,160.936V240v200c0,1.24,0.288,2.472,0.84,3.576l8,16C10.2,462.288,12.968,464,16,464h24
	c4.416,0,8-3.576,8-8v-16h96v8c0,2.128,0.84,4.16,2.344,5.656l8,8C155.84,463.16,157.88,464,160,464h16
	c2.12,0,4.16-0.84,5.656-2.344l8-8C191.16,452.16,192,450.128,192,448v-8h96v8c0,2.128,0.84,4.16,2.344,5.656l8,8
	C299.84,463.16,301.872,464,304,464h16c2.128,0,4.16-0.84,5.656-2.344l8-8C335.16,452.16,336,450.128,336,448v-8h96v16
	c0,4.424,3.576,8,8,8h24c3.032,0,5.8-1.712,7.16-4.424l8-16c0.552-1.104,0.84-2.336,0.84-3.576V240v-79.064
	C480,160.016,479.84,159.104,479.528,158.224z M16,162.336L45.624,80h388.752L464,162.336V232H16V162.336z M464,438.112L459.056,448
	H448v-16c0-4.424-3.576-8-8-8H328c-4.424,0-8,3.576-8,8v12.688L316.688,448h-9.376L304,444.688V432c0-4.424-3.576-8-8-8H184
	c-4.416,0-8,3.576-8,8v12.688L172.688,448h-9.376L160,444.688V432c0-4.424-3.584-8-8-8H40c-4.416,0-8,3.576-8,8v16H20.944
	L16,438.112V248h448V438.112z"/>
<path style="fill:#FCB641;" d="M120,128V40H72v88l-27.312,27.312c-3,3-4.688,7.072-4.688,11.312V240h112v-73.376
	c0-4.24-1.688-8.312-4.688-11.312L120,128z"/>
<g>
	<path style="fill:#AD3C2B;" d="M136,40H56V24c0-8.84,7.16-16,16-16h48c8.84,0,16,7.16,16,16V40z"/>
	<rect x="72" y="72" style="fill:#AD3C2B;" width="48" height="32"/>
	<path style="fill:#AD3C2B;" d="M120,240H40v-48h48c17.672,0,32,14.328,32,32V240z"/>
</g>
<path d="M152.968,149.656L128,124.688V48h8c4.416,0,8-3.576,8-8V24c0-13.232-10.768-24-24-24H72C58.768,0,48,10.768,48,24v16
	c0,4.424,3.584,8,8,8h8v76.688l-24.968,24.968C34.496,154.184,32,160.216,32,166.624V192v48c0,4.424,3.584,8,8,8h112
	c4.416,0,8-3.576,8-8v-73.376C160,160.216,157.504,154.184,152.968,149.656z M80,80h32v16H80V80z M64,24c0-4.416,3.592-8,8-8
	c0,4.424,3.584,8,8,8s8-3.576,8-8h16c0,4.424,3.584,8,8,8s8-3.576,8-8c4.408,0,8,3.584,8,8v8h-8H72h-8V24z M112,48v16H80V48H112z
	 M88,232v-8c0-4.424-3.584-8-8-8s-8,3.576-8,8v8H48v-32h40c13.232,0,24,10.768,24,24v8H88z M144,232h-16v-8
	c0-22.056-17.944-40-40-40H48v-17.376c0-2.104,0.856-4.168,2.344-5.656l27.312-27.312C79.16,132.16,80,130.128,80,128v-16h32v16
	c0,2.128,0.84,4.16,2.344,5.656l27.312,27.312c1.488,1.496,2.344,3.552,2.344,5.656V232z"/>
<path style="fill:#FCB641;" d="M264,128V40h-48v88l-27.312,27.312c-3,3-4.688,7.072-4.688,11.312V240h112v-73.376
	c0-4.24-1.688-8.312-4.688-11.312L264,128z"/>
<g>
	<path style="fill:#AD3C2B;" d="M280,40h-80V24c0-8.84,7.16-16,16-16h48c8.84,0,16,7.16,16,16V40z"/>
	<rect x="216" y="72" style="fill:#AD3C2B;" width="48" height="32"/>
	<path style="fill:#AD3C2B;" d="M264,240h-80v-48h48c17.672,0,32,14.328,32,32V240z"/>
</g>
<path d="M296.968,149.656L272,124.688V48h8c4.424,0,8-3.576,8-8V24c0-13.232-10.768-24-24-24h-48c-13.232,0-24,10.768-24,24v16
	c0,4.424,3.584,8,8,8h8v76.688l-24.968,24.968c-4.536,4.528-7.032,10.56-7.032,16.968V192v48c0,4.424,3.584,8,8,8h80h32
	c4.424,0,8-3.576,8-8v-73.376C304,160.216,301.504,154.184,296.968,149.656z M224,80h32v16h-32V80z M208,24c0-4.416,3.592-8,8-8
	c0,4.424,3.584,8,8,8s8-3.576,8-8h16c0,4.424,3.576,8,8,8s8-3.576,8-8c4.416,0,8,3.584,8,8v8h-8h-48h-8V24z M256,48v16h-32V48H256z
	 M232,232v-8c0-4.424-3.584-8-8-8s-8,3.576-8,8v8h-24v-32h40c13.232,0,24,10.768,24,24v8H232z M288,232h-16v-8
	c0-22.056-17.944-40-40-40h-40v-17.376c0-2.104,0.856-4.168,2.344-5.656l27.312-27.312C223.16,132.16,224,130.128,224,128v-16h32v16
	c0,2.128,0.84,4.16,2.344,5.656l27.312,27.312c1.496,1.496,2.344,3.552,2.344,5.656V232z"/>
<path style="fill:#FCB641;" d="M408,128V40h-48v88l-27.312,27.312c-3,3-4.688,7.072-4.688,11.312V240h112v-73.376
	c0-4.24-1.688-8.312-4.688-11.312L408,128z"/>
<g>
	<path style="fill:#AD3C2B;" d="M424,40h-80V24c0-8.84,7.16-16,16-16h48c8.84,0,16,7.16,16,16V40z"/>
	<rect x="360" y="72" style="fill:#AD3C2B;" width="48" height="32"/>
	<path style="fill:#AD3C2B;" d="M408,240h-80v-48h48c17.672,0,32,14.328,32,32V240z"/>
</g>
<path d="M440.968,149.656L416,124.688V104V72V48h8c4.424,0,8-3.576,8-8V24c0-13.232-10.768-24-24-24h-48c-13.232,0-24,10.768-24,24
	v16c0,4.424,3.576,8,8,8h8v24v32v20.688l-24.968,24.968c-4.536,4.528-7.032,10.56-7.032,16.968V192v48c0,4.424,3.576,8,8,8h80h32
	c4.424,0,8-3.576,8-8v-73.376C448,160.216,445.504,154.184,440.968,149.656z M368,80h32v16h-32V80z M352,24c0-4.416,3.584-8,8-8
	c0,4.424,3.576,8,8,8s8-3.576,8-8h16c0,4.424,3.576,8,8,8s8-3.576,8-8c4.416,0,8,3.584,8,8v8h-8h-48h-8V24z M400,48v16h-32V48H400z
	 M376,232v-8c0-4.424-3.576-8-8-8s-8,3.576-8,8v8h-24v-32h40c13.232,0,24,10.768,24,24v8H376z M432,232h-16v-8
	c0-22.056-17.944-40-40-40h-40v-17.376c0-2.104,0.848-4.168,2.344-5.656l27.312-27.312C367.16,132.16,368,130.128,368,128v-16h32v16
	c0,2.128,0.84,4.16,2.344,5.656l27.312,27.312c1.496,1.496,2.344,3.552,2.344,5.656V232z"/>
<path style="fill:#FCB641;" d="M280,472h-80c-8.84,0-16-7.16-16-16v-24h112v24C296,464.84,288.84,472,280,472z"/>
<path d="M280,480h-80c-13.232,0-24-10.768-24-24v-24c0-4.424,3.584-8,8-8h112c4.424,0,8,3.576,8,8v24
	C304,469.232,293.232,480,280,480z M192,440v16c0,4.416,3.592,8,8,8h80c4.416,0,8-3.584,8-8v-16H192z"/>
<path style="fill:#FCB641;" d="M136,472H56c-8.84,0-16-7.16-16-16v-24h112v24C152,464.84,144.84,472,136,472z"/>
<path d="M136,480H56c-13.232,0-24-10.768-24-24v-24c0-4.424,3.584-8,8-8h112c4.416,0,8,3.576,8,8v24
	C160,469.232,149.232,480,136,480z M48,440v16c0,4.416,3.592,8,8,8h80c4.408,0,8-3.584,8-8v-16H48z"/>
<path style="fill:#FCB641;" d="M424,472h-80c-8.84,0-16-7.16-16-16v-24h112v24C440,464.84,432.84,472,424,472z"/>
<path d="M424,480h-80c-13.232,0-24-10.768-24-24v-24c0-4.424,3.576-8,8-8h112c4.424,0,8,3.576,8,8v24
	C448,469.232,437.232,480,424,480z M336,440v16c0,4.416,3.584,8,8,8h80c4.416,0,8-3.584,8-8v-16H336z"/>
<path style="fill:#BD8931;" d="M296,376H152v-56c0-17.672,14.328-32,32-32h144v56C328,361.672,313.672,376,296,376z"/>
<path d="M296,384H152c-4.416,0-8-3.576-8-8v-56c0-22.056,17.944-40,40-40h144c4.424,0,8,3.576,8,8v56
	C336,366.056,318.056,384,296,384z M160,368h136c13.232,0,24-10.768,24-24v-48H184c-13.232,0-24,10.768-24,24V368z"/>
<rect x="184" y="288" style="fill:#FCB641;" width="112" height="88"/>
<rect x="184" y="288" style="fill:#AD3C2B;" width="80" height="88"/>
<path d="M296,280h-32h-80c-4.416,0-8,3.576-8,8v88c0,4.424,3.584,8,8,8h80h32c4.424,0,8-3.576,8-8v-88
	C304,283.576,300.424,280,296,280z M192,368v-16h32c4.416,0,8-3.576,8-8s-3.584-8-8-8h-32v-40h24v16c0,4.424,3.584,8,8,8
	s8-3.576,8-8v-16h24v72H192z M288,368h-16v-72h16V368z"/>
<circle style="fill:#AD3C2B;" cx="80" cy="336" r="40"/>
<path d="M80,384c-26.472,0-48-21.528-48-48s21.528-48,48-48s48,21.528,48,48S106.472,384,80,384z M80,304c-17.648,0-32,14.352-32,32
	s14.352,32,32,32s32-14.352,32-32S97.648,304,80,304z"/>
<path d="M88,344H72c-4.416,0-8-3.576-8-8s3.584-8,8-8h16c4.416,0,8,3.576,8,8S92.416,344,88,344z"/>
<circle style="fill:#AD3C2B;" cx="400" cy="336" r="40"/>
<path d="M400,384c-26.472,0-48-21.528-48-48s21.528-48,48-48s48,21.528,48,48S426.472,384,400,384z M400,304
	c-17.648,0-32,14.352-32,32s14.352,32,32,32s32-14.352,32-32S417.648,304,400,304z"/>
<path d="M408,344h-16c-4.424,0-8-3.576-8-8s3.576-8,8-8h16c4.424,0,8,3.576,8,8S412.424,344,408,344z"/>
</svg>