<?xml version="1.0" ?><svg id="duotone" viewBox="0 0 64 64" xmlns="http://www.w3.org/2000/svg"><rect height="14" rx="2" style="fill:#ffbd4a" width="58" x="3" y="32"/><path d="M10,42a3,3,0,1,1,3-3A3,3,0,0,1,10,42Zm0-4a1,1,0,1,0,1,1A1,1,0,0,0,10,38Z" style="fill:#363636"/><path d="M54,42a3,3,0,1,1,3-3A3,3,0,0,1,54,42Zm0-4a1,1,0,1,0,1,1A1,1,0,0,0,54,38Z" style="fill:#363636"/><rect height="14" rx="2" style="fill:#ffbd4a" width="58" x="3" y="48"/><path d="M10,58a3,3,0,1,1,3-3A3,3,0,0,1,10,58Zm0-4a1,1,0,1,0,1,1A1,1,0,0,0,10,54Z" style="fill:#363636"/><path d="M54,58a3,3,0,1,1,3-3A3,3,0,0,1,54,58Zm0-4a1,1,0,1,0,1,1A1,1,0,0,0,54,54Z" style="fill:#363636"/><path d="M5,30a1,1,0,0,1-1-1,6.5,6.5,0,0,1,3.807-5.948,22.478,22.478,0,0,1-.14-2.652,92.782,92.782,0,0,1,1.35-9.582,1,1,0,0,1,1.966.364c-.013.071-1.316,7.135-1.316,9.218a15.807,15.807,0,0,0,.223,3.053,1,1,0,0,1-.643,1.163A4.62,4.62,0,0,0,6,29,1,1,0,0,1,5,30Z" style="fill:#363636"/><path d="M21,30a1,1,0,0,1-1-1,4.62,4.62,0,0,0-3.247-4.384,1,1,0,0,1-.642-1.167,15.855,15.855,0,0,0,.222-3.049c0-2.083-1.3-9.147-1.316-9.218a1,1,0,0,1,1.966-.364,92.782,92.782,0,0,1,1.35,9.582,22.478,22.478,0,0,1-.14,2.652A6.5,6.5,0,0,1,22,29,1,1,0,0,1,21,30Z" style="fill:#363636"/><path d="M43,30a1,1,0,0,1-1-1,6.5,6.5,0,0,1,3.807-5.948,22.478,22.478,0,0,1-.14-2.652,92.782,92.782,0,0,1,1.35-9.582,1,1,0,0,1,1.966.364c-.013.071-1.316,7.135-1.316,9.218a15.807,15.807,0,0,0,.223,3.053,1,1,0,0,1-.643,1.163A4.62,4.62,0,0,0,44,29,1,1,0,0,1,43,30Z" style="fill:#363636"/><path d="M59,30a1,1,0,0,1-1-1,4.62,4.62,0,0,0-3.247-4.384,1,1,0,0,1-.642-1.167,15.855,15.855,0,0,0,.222-3.049c0-2.083-1.3-9.147-1.316-9.218a1,1,0,0,1,1.966-.364,92.782,92.782,0,0,1,1.35,9.582,22.478,22.478,0,0,1-.14,2.652A6.5,6.5,0,0,1,60,29,1,1,0,0,1,59,30Z" style="fill:#363636"/><path d="M24,30a1,1,0,0,1-1-1,6.5,6.5,0,0,1,3.807-5.948,22.478,22.478,0,0,1-.14-2.652,92.782,92.782,0,0,1,1.35-9.582,1,1,0,1,1,1.966.364c-.013.071-1.316,7.135-1.316,9.218a15.807,15.807,0,0,0,.223,3.053,1,1,0,0,1-.643,1.163A4.62,4.62,0,0,0,25,29,1,1,0,0,1,24,30Z" style="fill:#363636"/><path d="M40,30a1,1,0,0,1-1-1,4.62,4.62,0,0,0-3.247-4.384,1,1,0,0,1-.642-1.167,15.855,15.855,0,0,0,.222-3.049c0-2.083-1.3-9.147-1.316-9.218a1,1,0,1,1,1.966-.364,92.782,92.782,0,0,1,1.35,9.582,22.478,22.478,0,0,1-.14,2.652A6.5,6.5,0,0,1,41,29,1,1,0,0,1,40,30Z" style="fill:#363636"/><path d="M15,3H11a2,2,0,0,0,0,4h4a2,2,0,0,0,0-4Z" style="fill:#ffbd4a"/><path d="M34,3H30a2,2,0,0,0,0,4h4a2,2,0,0,0,0-4Z" style="fill:#ffbd4a"/><path d="M53,3H49a2,2,0,0,0,0,4h4a2,2,0,0,0,0-4Z" style="fill:#ffbd4a"/></svg>