<svg xmlns="http://www.w3.org/2000/svg" viewBox="0 0 1920 1920">
    <style>
        .st0{fill:#fff}.st1{fill:none;stroke:#231f20;stroke-width:50;stroke-linecap:round;stroke-linejoin:round;stroke-miterlimit:10}
    </style>
    <path class="st0" d="M1162.8 324.5c-34.7 0-67.5 6.3-96.4 17.5-30-73.4-102.2-125-186.4-125-31.1 0-60.6 7.1-86.9 19.7-51.2 24.5-90.4 70.1-106.5 125.4-3.8-1.3-7.6-2.5-11.5-3.6-26.1-7.6-54.7-11.8-84.7-11.8-121.9 0-220.7 69.2-220.7 154.5 0 40.9 22.7 78.1 59.8 105.8 18.1 13.5 39.6 24.7 63.5 32.9 19.9 6.9 41.4 11.7 64.1 14.1v516.9c0 32.6 26.4 59 59 59s59-26.4 59-59v-274c0 21.3 11.3 40 28.2 50.3 1.4.9 2.8 1.7 4.3 2.4 8 4 17 6.3 26.5 6.3 32.6 0 59-26.4 59-59V600c3.7 1.8 7.5 3.4 11.3 5 23.3 9.5 48.9 14.7 75.6 14.7 43.9 0 84.5-14 117.6-37.8 38.7 36.5 98.3 59.9 165.2 59.9 46.7 0 89.8-11.4 124.8-30.7 30.5-16.8 54.8-39.7 69.7-66.2 10.7-19 16.6-39.8 16.6-61.7-.1-87.6-94.6-158.7-211.1-158.7z" id="Layer_10"/>
    <path class="st0" d="M1162.8 641.8c-66.9 0-126.6-23.4-165.2-59.9-33.1 23.8-73.7 37.8-117.6 37.8-26.8 0-52.3-5.2-75.6-14.7-3.8-1.5-7.6-3.2-11.3-5v296.9c0 32.6-26.4 59-59 59-9.5 0-18.5-2.3-26.5-6.3-1.5-.7-2.9-1.5-4.3-2.4-16.9-10.4-28.2-29-28.2-50.3v273.8c0 32.6-26.4 59-59 59s-59-26.4-59-59V653.8c-22.7-2.4-44.2-7.2-64.1-14.1V1558c0 80 64.9 144.9 144.9 144.9h504.6c80.1 0 145-64.9 145-144.9V611c-34.9 19.4-78.1 30.8-124.7 30.8z" id="Layer_11"/>
    <path class="st0" d="M1484.3 691.6h-196.8v117.2h152.8v492.8h-152.8v117.2h196.8c36.5 0 66-29.6 66-66V757.7c0-36.5-29.5-66.1-66-66.1z" id="Layer_12"/>
    <g id="STROKES">
        <path class="st1" d="M1550.3 757.7v595.2c0 36.5-29.6 66.1-66 66.1h-196.8V691.6h196.8c36.5 0 66 29.6 66 66.1z"/>
        <path class="st1" d="M1287.5 808.9h152.8v492.8h-152.8z"/>
        <path class="st1" d="M1287.5 611.1v947c0 80.1-64.9 144.9-144.9 144.9H637.9c-80.1 0-144.9-64.9-144.9-144.9V639.8c19.9 6.8 41.4 11.7 64.1 14v516.9c0 32.6 26.4 59 59 59s59-26.4 59-59V896.9c0 21.3 11.3 40 28.2 50.4 1.4.9 2.8 1.7 4.3 2.4 8 4 17 6.3 26.5 6.3 32.6 0 59-26.4 59-59V600c3.7 1.8 7.5 3.4 11.3 5 23.3 9.5 48.9 14.7 75.6 14.7 43.9 0 84.5-14 117.6-37.9 38.7 36.5 98.3 59.9 165.2 59.9 46.6.1 89.8-11.3 124.7-30.6z"/>
        <path class="st1" d="M1373.8 483.2c0 21.9-5.9 42.7-16.6 61.7-14.9 26.6-39.2 49.4-69.7 66.2-34.9 19.3-78.1 30.7-124.7 30.7-66.9 0-126.5-23.4-165.2-59.9-33.1 23.8-73.7 37.9-117.6 37.9-26.7 0-52.3-5.2-75.6-14.7-3.8-1.5-7.6-3.2-11.3-5V897c0 32.6-26.4 59-59 59-9.5 0-18.5-2.3-26.5-6.3-1.5-.7-2.9-1.5-4.3-2.4-16.9-10.4-28.2-29-28.2-50.4v273.8c0 32.6-26.4 59-59 59s-59-26.4-59-59V653.8c-22.7-2.4-44.2-7.2-64.1-14-23.9-8.2-45.4-19.4-63.5-32.9-37.1-27.6-59.8-64.8-59.8-105.8 0-85.3 98.8-154.5 220.7-154.5 30 0 58.6 4.2 84.7 11.8 3.9 1.1 7.7 2.4 11.5 3.6 16.1-55.4 55.3-100.9 106.5-125.4 26.3-12.6 55.8-19.7 86.9-19.7 84.2 0 156.4 51.7 186.4 125.1 28.9-11.2 61.6-17.5 96.3-17.5 116.6 0 211.1 71.1 211.1 158.7z"/>
        <path class="st1" d="M1075.4 1494.8V875.9"/>
        <path class="st1" d="M890.3 1494.8V875.9"/>
    </g>
</svg>
