<?xml version="1.0" encoding="utf-8"?><svg xmlns="http://www.w3.org/2000/svg" xmlns:xlink="http://www.w3.org/1999/xlink" width="1070" height="624" preserveAspectRatio="xMidYMid" viewBox="0 0 1070 624" style="z-index:1;margin-right:-2px;display:block;background-repeat-y:initial;background-repeat-x:initial;animation-play-state:paused" ><g transform="translate(535,312) scale(1,1) translate(-535,-312)" style="transform:matrix(1, 0, 0, 1, 0, 0);animation-play-state:paused" ><defs style="animation-play-state:paused" ><linearGradient id="ldbk-photon-ikxkq80o8jr-lg" x1="369.5" x2="1070" y1="0" y2="0" gradientUnits="userSpaceOnUse" style="animation-play-state:paused" ><stop stop-color="#151515" offset="0" style="animation-play-state:paused" ></stop>

    
<stop stop-color="#4aa39b" offset="1" style="animation-play-state:paused" ></stop></linearGradient>

  
<mask id="ldbk-photon-ikxkq80o8jr-mask" style="animation-play-state:paused" ><g style="animation-play-state:paused" ><path d="M1370 -0.5 L467.0706954961297 -0.5 A13 13 0 0 1 467.0706954961297 26.5 L1370 26.5" fill="#fff" transform="matrix(1,0,0,1,35.73088455200195,0)" style="transform:matrix(1, 0, 0, 1, 35.7309, 0);animation-play-state:paused" ></path>
<path d="M1131.802887119837 -0.5 L1167.6057742396738 -0.5 A13 13 0 0 1 1167.6057742396738 26.5 L1131.802887119837 26.5 A13 13 0 0 1 1131.802887119837 -0.5" fill="#000" transform="matrix(1,0,0,1,0,0)" opacity="0.2" style="transform:matrix(1, 0, 0, 1, 0, 0);animation-play-state:paused" ></path>
<path d="M1370 25.5 L394.0064189988975 25.5 A13 13 0 0 0 394.0064189988975 52.5 L1370 52.5" fill="#fff" transform="matrix(1,0,0,1,-2.4313125610351562,0)" style="transform:matrix(1, 0, 0, 1, -2.43131, 0);animation-play-state:paused" ></path>
<path d="M531.8969691068926 25.5 L565.7014599407797 25.5 A13 13 0 0 1 565.7014599407797 52.5 L531.8969691068926 52.5 A13 13 0 0 1 531.8969691068926 25.5" fill="#fff" transform="matrix(1,0,0,1,0,0)" opacity="1" style="transform:matrix(1, 0, 0, 1, 0, 0);animation-play-state:paused" ></path>
<path d="M1370 51.5 L507.801031269144 51.5 A13 13 0 0 1 507.801031269144 78.5 L1370 78.5" fill="#fff" transform="matrix(1,0,0,1,12.670628547668457,0)" style="transform:matrix(1, 0, 0, 1, 12.6706, 0);animation-play-state:paused" ></path>
<path d="M1107.9017342927932 51.5 L1119.8034685855864 51.5 A13 13 0 0 1 1119.8034685855864 78.5 L1107.9017342927932 78.5 A13 13 0 0 1 1107.9017342927932 51.5" fill="#000" transform="matrix(1,0,0,1,-249.6875,0)" opacity="1" style="transform:matrix(1, 0, 0, 1, -249.688, 0);animation-play-state:paused" ></path>
<path d="M1370 77.5 L308.71488155483553 77.5 A13 13 0 0 0 308.71488155483553 104.5 L1370 104.5" fill="#fff" transform="matrix(1,0,0,1,-18.60995101928711,0)" style="transform:matrix(1, 0, 0, 1, -18.61, 0);animation-play-state:paused" ></path>
<path d="M441.99373765400355 77.5 L465.8733448817165 77.5 A13 13 0 0 1 465.8733448817165 104.5 L441.99373765400355 104.5 A13 13 0 0 1 441.99373765400355 77.5" fill="#fff" transform="matrix(1,0,0,1,0,0)" opacity="0.357143" style="transform:matrix(1, 0, 0, 1, 0, 0);opacity:0.357143;animation-play-state:paused" ></path>
<path d="M1370 103.5 L442.3705781888061 103.5 A13 13 0 0 1 442.3705781888061 130.5 L1370 130.5" fill="#fff" transform="matrix(1,0,0,1,9.40849828601209e-13,0)" style="transform:matrix(1, 0, 0, 1, 9.4085e-13, 0);animation-play-state:paused" ></path>
<path d="M1126.456904491838 103.5 L1156.913808983676 103.5 A13 13 0 0 1 1156.913808983676 130.5 L1126.456904491838 130.5 A13 13 0 0 1 1126.456904491838 103.5" fill="#000" transform="matrix(1,0,0,1,-490.3003234863281,0)" opacity="0.714286" style="transform:matrix(1, 0, 0, 1, -490.3, 0);opacity:0.714286;animation-play-state:paused" ></path>
<path d="M1370 129.5 L364.5299683859581 129.5 A13 13 0 0 0 364.5299683859581 156.5 L1370 156.5" fill="#fff" transform="matrix(1,0,0,1,-4.152091979980469,0)" style="transform:matrix(1, 0, 0, 1, -4.15209, 0);animation-play-state:paused" ></path>
<path d="M492.8107497325701 129.5 L530.0698205442254 129.5 A13 13 0 0 1 530.0698205442254 156.5 L492.8107497325701 156.5 A13 13 0 0 1 492.8107497325701 129.5" fill="#fff" transform="matrix(1,0,0,1,0,0)" opacity="1" style="transform:matrix(1, 0, 0, 1, 0, 0);animation-play-state:paused" ></path>
<path d="M1370 155.5 L445.4127282534289 155.5 A13 13 0 0 1 445.4127282534289 182.5 L1370 182.5" fill="#fff" transform="matrix(1,0,0,1,20.55733299255371,0)" style="transform:matrix(1, 0, 0, 1, 20.5573, 0);animation-play-state:paused" ></path>
<path d="M1113.4670642108558 155.5 L1130.9341284217116 155.5 A13 13 0 0 1 1130.9341284217116 182.5 L1113.4670642108558 182.5 A13 13 0 0 1 1113.4670642108558 155.5" fill="#000" transform="matrix(1,0,0,1,-736.3645629882812,0)" opacity="0.357143" style="transform:matrix(1, 0, 0, 1, -736.365, 0);opacity:0.357143;animation-play-state:paused" ></path>
<path d="M1370 181.5 L344.5298034366418 181.5 A13 13 0 0 0 344.5298034366418 208.5 L1370 208.5" fill="#fff" transform="matrix(1,0,0,1,-20.88450813293457,0)" style="transform:matrix(1, 0, 0, 1, -20.8845, 0);animation-play-state:paused" ></path>
<path d="M463.0536131011114 181.5 L501.17045234022123 181.5 A13 13 0 0 1 501.17045234022123 208.5 L463.0536131011114 208.5 A13 13 0 0 1 463.0536131011114 181.5" fill="#fff" transform="matrix(1,0,0,1,0,0)" opacity="0.535714" style="transform:matrix(1, 0, 0, 1, 0, 0);opacity:0.535714;animation-play-state:paused" ></path>
<path d="M1370 207.5 L449.9808385024103 207.5 A13 13 0 0 1 449.9808385024103 234.5 L1370 234.5" fill="#fff" transform="matrix(1,0,0,1,40.903717041015625,0)" style="transform:matrix(1, 0, 0, 1, 40.9037, 0);animation-play-state:paused" ></path>
<path d="M1113.90239446087 207.5 L1131.80478892174 207.5 A13 13 0 0 1 1131.80478892174 234.5 L1113.90239446087 234.5 A13 13 0 0 1 1113.90239446087 207.5" fill="#000" transform="matrix(1,0,0,1,0,0)" opacity="1" style="transform:matrix(1, 0, 0, 1, 0, 0);animation-play-state:paused" ></path>
<path d="M1370 233.5 L348.9877957825886 233.5 A13 13 0 0 0 348.9877957825886 260.5 L1370 260.5" fill="#fff" transform="matrix(1,0,0,1,-2.996000289916992,0)" style="transform:matrix(1, 0, 0, 1, -2.996, 0);animation-play-state:paused" ></path>
<path d="M426.5530083764081 233.5 L461.64920293565024 233.5 A13 13 0 0 1 461.64920293565024 260.5 L426.5530083764081 260.5 A13 13 0 0 1 426.5530083764081 233.5" fill="#fff" transform="matrix(1,0,0,1,0,0)" opacity="0.892857" style="transform:matrix(1, 0, 0, 1, 0, 0);opacity:0.892857;animation-play-state:paused" ></path>
<path d="M1370 259.5 L500.1659281814824 259.5 A13 13 0 0 1 500.1659281814824 286.5 L1370 286.5" fill="#fff" transform="matrix(1,0,0,1,14.076589584350586,0)" style="transform:matrix(1, 0, 0, 1, 14.0766, 0);animation-play-state:paused" ></path>
<path d="M1128.5398082932213 259.5 L1161.0796165864426 259.5 A13 13 0 0 1 1161.0796165864426 286.5 L1128.5398082932213 286.5 A13 13 0 0 1 1128.5398082932213 259.5" fill="#000" transform="matrix(1,0,0,1,-532.7784423828125,0)" opacity="0.714286" style="transform:matrix(1, 0, 0, 1, -532.778, 0);opacity:0.714286;animation-play-state:paused" ></path>
<path d="M1370 285.5 L361.12136965120703 285.5 A13 13 0 0 0 361.12136965120703 312.5 L1370 312.5" fill="#fff" transform="matrix(1,0,0,1,-3.5069103240966797,0)" style="transform:matrix(1, 0, 0, 1, -3.50691, 0);animation-play-state:paused" ></path>
<path d="M487.4765150514651 285.5 L515.905237334081 285.5 A13 13 0 0 1 515.905237334081 312.5 L487.4765150514651 312.5 A13 13 0 0 1 487.4765150514651 285.5" fill="#fff" transform="matrix(1,0,0,1,0,0)" opacity="1" style="transform:matrix(1, 0, 0, 1, 0, 0);animation-play-state:paused" ></path>
<path d="M1370 311.5 L538.3077282457658 311.5 A13 13 0 0 1 538.3077282457658 338.5 L1370 338.5" fill="#fff" transform="matrix(1,0,0,1,26.373685836791992,0)" style="transform:matrix(1, 0, 0, 1, 26.3737, 0);animation-play-state:paused" ></path>
<path d="M1116.474801203152 311.5 L1136.9496024063042 311.5 A13 13 0 0 1 1136.9496024063042 338.5 L1116.474801203152 338.5 A13 13 0 0 1 1116.474801203152 311.5" fill="#000" transform="matrix(1,0,0,1,-465.3370361328125,0)" opacity="0.714285" style="transform:matrix(1, 0, 0, 1, -465.337, 0);opacity:0.714285;animation-play-state:paused" ></path>
<path d="M1370 337.5 L398.13776563787155 337.5 A13 13 0 0 0 398.13776563787155 364.5 L1370 364.5" fill="#fff" transform="matrix(1,0,0,1,-20.782142639160156,0)" style="transform:matrix(1, 0, 0, 1, -20.7821, 0);animation-play-state:paused" ></path>
<path d="M495.3555075884101 337.5 L510.26279571374585 337.5 A13 13 0 0 1 510.26279571374585 364.5 L495.3555075884101 364.5 A13 13 0 0 1 495.3555075884101 337.5" fill="#fff" transform="matrix(1,0,0,1,0,0)" opacity="0.178571" style="transform:matrix(1, 0, 0, 1, 0, 0);opacity:0.178571;animation-play-state:paused" ></path>
<path d="M1370 363.5 L543.538626790107 363.5 A13 13 0 0 1 543.538626790107 390.5 L1370 390.5" fill="#fff" transform="matrix(1,0,0,1,14.350727081298828,0)" style="transform:matrix(1, 0, 0, 1, 14.3507, 0);animation-play-state:paused" ></path>
<path d="M1120.9938790964616 363.5 L1145.9877581929231 363.5 A13 13 0 0 1 1145.9877581929231 390.5 L1120.9938790964616 390.5 A13 13 0 0 1 1120.9938790964616 363.5" fill="#000" transform="matrix(1,0,0,1,-541.0985107421875,0)" opacity="0.714286" style="transform:matrix(1, 0, 0, 1, -541.099, 0);opacity:0.714286;animation-play-state:paused" ></path>
<path d="M1370 389.5 L469.0628679145982 389.5 A13 13 0 0 0 469.0628679145982 416.5 L1370 416.5" fill="#fff" transform="matrix(1,0,0,1,-14.24689769744873,0)" style="transform:matrix(1, 0, 0, 1, -14.2469, 0);animation-play-state:paused" ></path>
<path d="M519.7063333329447 389.5 L547.4819134608548 389.5 A13 13 0 0 1 547.4819134608548 416.5 L519.7063333329447 416.5 A13 13 0 0 1 519.7063333329447 389.5" fill="#fff" transform="matrix(1,0,0,1,0,0)" opacity="0.535714" style="transform:matrix(1, 0, 0, 1, 0, 0);opacity:0.535714;animation-play-state:paused" ></path>
<path d="M1370 415.5 L524.9107777877335 415.5 A13 13 0 0 1 524.9107777877335 442.5 L1370 442.5" fill="#fff" transform="matrix(1,0,0,1,32.03204345703125,0)" style="transform:matrix(1, 0, 0, 1, 32.032, 0);animation-play-state:paused" ></path>
<path d="M1115.0358489987318 415.5 L1134.0716979974636 415.5 A13 13 0 0 1 1134.0716979974636 442.5 L1115.0358489987318 442.5 A13 13 0 0 1 1115.0358489987318 415.5" fill="#000" transform="matrix(1,0,0,1,0,0)" opacity="1" style="transform:matrix(1, 0, 0, 1, 0, 0);animation-play-state:paused" ></path>
<path d="M1370 441.5 L381.24479664282694 441.5 A13 13 0 0 0 381.24479664282694 468.5 L1370 468.5" fill="#fff" transform="matrix(1,0,0,1,-3.934814453125,0)" style="transform:matrix(1, 0, 0, 1, -3.93481, 0);animation-play-state:paused" ></path>
<path d="M461.2774593880083 441.5 L483.645764482737 441.5 A13 13 0 0 1 483.645764482737 468.5 L461.2774593880083 468.5 A13 13 0 0 1 461.2774593880083 441.5" fill="#fff" transform="matrix(1,0,0,1,0,0)" opacity="0.892857" style="transform:matrix(1, 0, 0, 1, 0, 0);opacity:0.892857;animation-play-state:paused" ></path>
<path d="M1370 467.5 L546.9981134169191 467.5 A13 13 0 0 1 546.9981134169191 494.5 L1370 494.5" fill="#fff" transform="matrix(1,0,0,1,0,0)" style="transform:matrix(1, 0, 0, 1, 0, 0);animation-play-state:paused" ></path>
<path d="M1126.1152575880549 467.5 L1156.2305151761097 467.5 A13 13 0 0 1 1156.2305151761097 494.5 L1126.1152575880549 494.5 A13 13 0 0 1 1126.1152575880549 467.5" fill="#000" transform="matrix(1,0,0,1,-212.06983947753906,0)" opacity="1" style="transform:matrix(1, 0, 0, 1, -212.07, 0);animation-play-state:paused" ></path>
<path d="M1370 493.5 L377.07782637119726 493.5 A13 13 0 0 0 377.07782637119726 520.5 L1370 520.5" fill="#fff" transform="matrix(1,0,0,1,-25.929018020629883,0)" style="transform:matrix(1, 0, 0, 1, -25.929, 0);animation-play-state:paused" ></path>
<path d="M506.1839587761506 493.5 L539.2194668569064 493.5 A13 13 0 0 1 539.2194668569064 520.5 L506.1839587761506 520.5 A13 13 0 0 1 506.1839587761506 493.5" fill="#fff" transform="matrix(1,0,0,1,0,0)" opacity="1" style="transform:matrix(1, 0, 0, 1, 0, 0);animation-play-state:paused" ></path>
<path d="M1370 519.5 L586.1205938879166 519.5 A13 13 0 0 1 586.1205938879166 546.5 L1370 546.5" fill="#fff" transform="matrix(1,0,0,1,0,0)" style="transform:matrix(1, 0, 0, 1, 0, 0);animation-play-state:paused" ></path>
<path d="M1108.4034415659664 519.5 L1120.8068831319329 519.5 A13 13 0 0 1 1120.8068831319329 546.5 L1108.4034415659664 546.5 A13 13 0 0 1 1108.4034415659664 519.5" fill="#000" transform="matrix(1,0,0,1,-448.5304870605469,0)" opacity="0.714285" style="transform:matrix(1, 0, 0, 1, -448.53, 0);opacity:0.714285;animation-play-state:paused" ></path>
<path d="M1370 545.5 L447.71339857441 545.5 A13 13 0 0 0 447.71339857441 572.5 L1370 572.5" fill="#fff" transform="matrix(1,0,0,1,-18.88651466369629,0)" style="transform:matrix(1, 0, 0, 1, -18.8865, 0);animation-play-state:paused" ></path>
<path d="M536.4263595881988 545.5 L565.3724929580529 545.5 A13 13 0 0 1 565.3724929580529 572.5 L536.4263595881988 572.5 A13 13 0 0 1 536.4263595881988 545.5" fill="#fff" transform="matrix(1,0,0,1,0,0)" opacity="1" style="transform:matrix(1, 0, 0, 1, 0, 0);animation-play-state:paused" ></path>
<path d="M1370 571.5 L467.7461529398539 571.5 A13 13 0 0 1 467.7461529398539 598.5 L1370 598.5" fill="#fff" transform="matrix(1,0,0,1,0,0)" style="transform:matrix(1, 0, 0, 1, 0, 0);animation-play-state:paused" ></path>
<path d="M1116.6218722202339 571.5 L1137.2437444404677 571.5 A13 13 0 0 1 1137.2437444404677 598.5 L1116.6218722202339 598.5 A13 13 0 0 1 1116.6218722202339 571.5" fill="#000" transform="matrix(1,0,0,1,-580.8447875976562,0)" opacity="0.714286" style="transform:matrix(1, 0, 0, 1, -580.845, 0);opacity:0.714286;animation-play-state:paused" ></path>
<path d="M1370 597.5 L402.00894615356617 597.5 A13 13 0 0 0 402.00894615356617 624.5 L1370 624.5" fill="#fff" transform="matrix(1,0,0,1,-20.3021183013916,0)" style="transform:matrix(1, 0, 0, 1, -20.3021, 0);animation-play-state:paused" ></path>
<path d="M541.4162489841716 597.5 L571.4709394727824 597.5 A13 13 0 0 1 571.4709394727824 624.5 L541.4162489841716 624.5 A13 13 0 0 1 541.4162489841716 597.5" fill="#fff" transform="matrix(1,0,0,1,0,0)" opacity="0.178571" style="transform:matrix(1, 0, 0, 1, 0, 0);opacity:0.178571;animation-play-state:paused" ></path></g></mask></defs>


<rect opacity="0.3" x="0" y="0" width="1070" height="624" fill="url(#ldbk-photon-ikxkq80o8jr-lg)" mask="url(#ldbk-photon-ikxkq80o8jr-mask)" style="animation-play-state:paused" ></rect></g></svg>